<mxfile host="app.diagrams.net" modified="2023-12-09T16:34:11.648Z" agent="Mozilla/5.0 (Windows NT 10.0; Win64; x64; rv:120.0) Gecko/20100101 Firefox/120.0" etag="mV_xWfKEDMBXAnSSy1Rj" version="22.1.7" type="google">
  <diagram name="Page-1" id="e7e014a7-5840-1c2e-5031-d8a46d1fe8dd">
    <mxGraphModel grid="1" page="1" gridSize="10" guides="1" tooltips="1" connect="1" arrows="1" fold="1" pageScale="1" pageWidth="1169" pageHeight="826" background="none" math="0" shadow="0">
      <root>
        <mxCell id="0" />
        <mxCell id="1" parent="0" />
        <mxCell id="TNf5Z8Sz2Jh5wrevXViB-41" value="Actor" style="shape=umlActor;verticalLabelPosition=bottom;verticalAlign=top;html=1;" vertex="1" parent="1">
          <mxGeometry x="360.05" y="18.380000000000003" width="30" height="60" as="geometry" />
        </mxCell>
        <mxCell id="TNf5Z8Sz2Jh5wrevXViB-42" value="Actor" style="shape=umlActor;verticalLabelPosition=bottom;verticalAlign=top;html=1;" vertex="1" parent="1">
          <mxGeometry x="360.05" y="260" width="30" height="60" as="geometry" />
        </mxCell>
        <mxCell id="wsK9ByOiBfa8sDpIFdj--3" value="Оформление поступления" style="ellipse;whiteSpace=wrap;html=1;" vertex="1" parent="1">
          <mxGeometry x="305.05" y="170" width="140" height="70" as="geometry" />
        </mxCell>
        <mxCell id="wsK9ByOiBfa8sDpIFdj--6" value="Оформление заказа на материал" style="ellipse;whiteSpace=wrap;html=1;" vertex="1" parent="1">
          <mxGeometry x="7.5" y="30" width="155" height="70" as="geometry" />
        </mxCell>
        <mxCell id="wsK9ByOiBfa8sDpIFdj--7" value="&lt;div&gt;Просмотр списка материалов&lt;br&gt;&lt;/div&gt;" style="ellipse;whiteSpace=wrap;html=1;" vertex="1" parent="1">
          <mxGeometry x="620" y="13.38" width="140" height="70" as="geometry" />
        </mxCell>
        <mxCell id="wsK9ByOiBfa8sDpIFdj--8" value="&lt;div&gt;Просмотр групп материалов &lt;br&gt;&lt;/div&gt;" style="ellipse;whiteSpace=wrap;html=1;" vertex="1" parent="1">
          <mxGeometry x="640" y="110" width="140" height="70" as="geometry" />
        </mxCell>
        <mxCell id="wsK9ByOiBfa8sDpIFdj--23" value="Бухгалтер-экономист" style="text;html=1;align=center;verticalAlign=middle;resizable=0;points=[];autosize=1;strokeColor=none;fillColor=none;" vertex="1" parent="1">
          <mxGeometry x="220.05" y="20" width="140" height="30" as="geometry" />
        </mxCell>
        <mxCell id="wsK9ByOiBfa8sDpIFdj--25" value="Отдел кадров" style="text;html=1;align=center;verticalAlign=middle;resizable=0;points=[];autosize=1;strokeColor=none;fillColor=none;" vertex="1" parent="1">
          <mxGeometry x="400.05" y="260" width="100" height="30" as="geometry" />
        </mxCell>
        <mxCell id="wsK9ByOiBfa8sDpIFdj--26" value="Управление графиками работы" style="ellipse;whiteSpace=wrap;html=1;" vertex="1" parent="1">
          <mxGeometry x="610" y="270" width="140" height="70" as="geometry" />
        </mxCell>
        <mxCell id="wsK9ByOiBfa8sDpIFdj--27" value="Управление должностями" style="ellipse;whiteSpace=wrap;html=1;" vertex="1" parent="1">
          <mxGeometry x="515" y="378" width="140" height="70" as="geometry" />
        </mxCell>
        <mxCell id="wsK9ByOiBfa8sDpIFdj--28" value="Управление сотрудниками" style="ellipse;whiteSpace=wrap;html=1;" vertex="1" parent="1">
          <mxGeometry x="162.5" y="390" width="140" height="70" as="geometry" />
        </mxCell>
        <mxCell id="wsK9ByOiBfa8sDpIFdj--29" value="Оформление списания" style="ellipse;whiteSpace=wrap;html=1;" vertex="1" parent="1">
          <mxGeometry x="490" y="170" width="140" height="70" as="geometry" />
        </mxCell>
        <mxCell id="wsK9ByOiBfa8sDpIFdj--33" value="Управление сведениями об организации" style="ellipse;whiteSpace=wrap;html=1;" vertex="1" parent="1">
          <mxGeometry x="15" y="300" width="140" height="70" as="geometry" />
        </mxCell>
        <mxCell id="wsK9ByOiBfa8sDpIFdj--48" value="Управление заказчиками" style="ellipse;whiteSpace=wrap;html=1;" vertex="1" parent="1">
          <mxGeometry x="15" y="120" width="140" height="70" as="geometry" />
        </mxCell>
        <mxCell id="wsK9ByOiBfa8sDpIFdj--49" value="Управление поставщиками" style="ellipse;whiteSpace=wrap;html=1;" vertex="1" parent="1">
          <mxGeometry x="145" y="180" width="140" height="70" as="geometry" />
        </mxCell>
        <mxCell id="fDel3tof_uO1-oGqYFEe-5" value="" style="endArrow=none;html=1;rounded=0;entryX=0.5;entryY=0;entryDx=0;entryDy=0;" edge="1" parent="1" source="TNf5Z8Sz2Jh5wrevXViB-41" target="wsK9ByOiBfa8sDpIFdj--3">
          <mxGeometry width="50" height="50" relative="1" as="geometry">
            <mxPoint x="300" y="350" as="sourcePoint" />
            <mxPoint x="350" y="300" as="targetPoint" />
          </mxGeometry>
        </mxCell>
        <mxCell id="fDel3tof_uO1-oGqYFEe-6" value="" style="endArrow=none;html=1;rounded=0;" edge="1" parent="1" source="TNf5Z8Sz2Jh5wrevXViB-41" target="wsK9ByOiBfa8sDpIFdj--8">
          <mxGeometry width="50" height="50" relative="1" as="geometry">
            <mxPoint x="300" y="350" as="sourcePoint" />
            <mxPoint x="350" y="300" as="targetPoint" />
          </mxGeometry>
        </mxCell>
        <mxCell id="fDel3tof_uO1-oGqYFEe-7" value="" style="endArrow=none;html=1;rounded=0;entryX=1;entryY=0.5;entryDx=0;entryDy=0;" edge="1" parent="1" target="wsK9ByOiBfa8sDpIFdj--6">
          <mxGeometry width="50" height="50" relative="1" as="geometry">
            <mxPoint x="360" y="48" as="sourcePoint" />
            <mxPoint x="145.00190569126556" y="171.6200505225362" as="targetPoint" />
          </mxGeometry>
        </mxCell>
        <mxCell id="fDel3tof_uO1-oGqYFEe-8" value="" style="endArrow=none;html=1;rounded=0;entryX=0;entryY=0.5;entryDx=0;entryDy=0;" edge="1" parent="1" source="TNf5Z8Sz2Jh5wrevXViB-41" target="wsK9ByOiBfa8sDpIFdj--7">
          <mxGeometry width="50" height="50" relative="1" as="geometry">
            <mxPoint x="300" y="350" as="sourcePoint" />
            <mxPoint x="350" y="300" as="targetPoint" />
          </mxGeometry>
        </mxCell>
        <mxCell id="fDel3tof_uO1-oGqYFEe-9" value="" style="endArrow=none;html=1;rounded=0;entryX=0.221;entryY=0.086;entryDx=0;entryDy=0;exitX=0.667;exitY=0.683;exitDx=0;exitDy=0;exitPerimeter=0;entryPerimeter=0;" edge="1" parent="1" target="wsK9ByOiBfa8sDpIFdj--29" source="TNf5Z8Sz2Jh5wrevXViB-41">
          <mxGeometry width="50" height="50" relative="1" as="geometry">
            <mxPoint x="40" y="50" as="sourcePoint" />
            <mxPoint x="350" y="300" as="targetPoint" />
          </mxGeometry>
        </mxCell>
        <mxCell id="fDel3tof_uO1-oGqYFEe-19" value="" style="endArrow=none;html=1;rounded=0;entryX=0;entryY=0.5;entryDx=0;entryDy=0;" edge="1" parent="1" source="TNf5Z8Sz2Jh5wrevXViB-42" target="wsK9ByOiBfa8sDpIFdj--27">
          <mxGeometry width="50" height="50" relative="1" as="geometry">
            <mxPoint x="40" y="340" as="sourcePoint" />
            <mxPoint x="470" y="420" as="targetPoint" />
          </mxGeometry>
        </mxCell>
        <mxCell id="fDel3tof_uO1-oGqYFEe-20" value="" style="endArrow=none;html=1;rounded=0;exitX=1;exitY=0;exitDx=0;exitDy=0;" edge="1" parent="1" source="wsK9ByOiBfa8sDpIFdj--28" target="TNf5Z8Sz2Jh5wrevXViB-42">
          <mxGeometry width="50" height="50" relative="1" as="geometry">
            <mxPoint x="420" y="470" as="sourcePoint" />
            <mxPoint x="40" y="360" as="targetPoint" />
          </mxGeometry>
        </mxCell>
        <mxCell id="fDel3tof_uO1-oGqYFEe-21" value="" style="endArrow=none;html=1;rounded=0;" edge="1" parent="1" source="wsK9ByOiBfa8sDpIFdj--33">
          <mxGeometry width="50" height="50" relative="1" as="geometry">
            <mxPoint x="420" y="470" as="sourcePoint" />
            <mxPoint x="360" y="290" as="targetPoint" />
          </mxGeometry>
        </mxCell>
        <mxCell id="fDel3tof_uO1-oGqYFEe-22" value="" style="endArrow=none;html=1;rounded=0;exitX=-0.021;exitY=0.6;exitDx=0;exitDy=0;exitPerimeter=0;" edge="1" parent="1" source="wsK9ByOiBfa8sDpIFdj--26" target="TNf5Z8Sz2Jh5wrevXViB-42">
          <mxGeometry width="50" height="50" relative="1" as="geometry">
            <mxPoint x="420" y="380" as="sourcePoint" />
            <mxPoint x="40" y="340" as="targetPoint" />
          </mxGeometry>
        </mxCell>
        <mxCell id="a5c_sYZ6xPuqzVH80Lyi-1" value="" style="endArrow=none;html=1;rounded=0;exitX=0.643;exitY=0.043;exitDx=0;exitDy=0;exitPerimeter=0;" edge="1" parent="1" source="wsK9ByOiBfa8sDpIFdj--49" target="TNf5Z8Sz2Jh5wrevXViB-41">
          <mxGeometry width="50" height="50" relative="1" as="geometry">
            <mxPoint x="360" y="400" as="sourcePoint" />
            <mxPoint x="410" y="350" as="targetPoint" />
          </mxGeometry>
        </mxCell>
        <mxCell id="a5c_sYZ6xPuqzVH80Lyi-2" value="" style="endArrow=none;html=1;rounded=0;exitX=1;exitY=0;exitDx=0;exitDy=0;" edge="1" parent="1" source="wsK9ByOiBfa8sDpIFdj--48" target="TNf5Z8Sz2Jh5wrevXViB-41">
          <mxGeometry width="50" height="50" relative="1" as="geometry">
            <mxPoint x="360" y="400" as="sourcePoint" />
            <mxPoint x="410" y="350" as="targetPoint" />
          </mxGeometry>
        </mxCell>
      </root>
    </mxGraphModel>
  </diagram>
</mxfile>
